<?xml version="1.0" encoding="UTF-8"?>
<svg id="Layer_1" data-name="Layer 1" xmlns="http://www.w3.org/2000/svg" viewBox="0 0 2079.85 1630.11">
  <defs>
    <style>
      .cls-1 {
        fill: #fff;
        fill-rule: evenodd;
        stroke-width: 0px;
      }
    </style>
  </defs>
  <path class="cls-1" d="m835.52,906.78c-4.56,72.25-64.2,173.95-94.29,221.07,105.18,77.66,136.35,184.01,163.45,276.53,25.52,87.12,46.77,159.58,135.24,164.4,88.48-4.83,109.73-77.29,135.24-164.4,27.1-92.52,58.27-198.87,163.46-276.53-30.09-47.12-89.73-148.82-94.29-221.07h-408.81Zm-149.67,193.88c13.33-20.22,35.37-54.98,54.36-91.37-113.34-100.87-287.86-105.43-375.65-100.24,56.41,70.63,84.85,105,116.81,125.46,29.44,18.86,66.92,28.92,137.05,47.77,19.43,5.22,41.34,11.1,67.43,18.38Zm653.79-91.37c18.99,36.39,41.03,71.15,54.36,91.37,26.1-7.28,48.01-13.16,67.43-18.38,70.14-18.84,107.62-28.91,137.06-47.77,31.95-20.46,60.4-54.82,116.81-125.46-87.79-5.19-262.31-.63-375.66,100.24Zm-299.72,620.82c-134.49-5.39-161.51-97.62-194.04-208.69-25.85-88.24-55.83-190.55-159.65-256.97-30.93-8.72-59.16-16.31-83.65-22.89-76.08-20.43-116.73-31.36-154.34-55.45-42.71-27.36-74.91-67.72-144.03-154.37-27.89-34.96,23.83,29.59-22.62-28.48-10.54-13.18-8.39-32.42,4.8-42.96,4.32-3.45,9.3-5.54,14.4-6.33v-.03c.87-.13,285.78-46.32,465.56,97.32,6.49-18.12,10.37-34.76,9.92-48C631.91,879.66-206.02,711.66,47.44,20.12,53.27,4.22,70.9-3.95,86.8,1.88c15.91,5.83,24.07,23.46,18.24,39.36-45.45,124-51.31,229.45-30.51,319.04,51.88-44.27,145.57-145.08,163.05-306.83,1.79-16.83,16.9-29.03,33.73-27.24,16.83,1.79,29.03,16.9,27.24,33.73-22.01,203.56-152.05,322.77-204.3,362.99,57.15,141.98,184.89,238.32,316.57,302.69-86.67-106.37-172.06-285.11-90.63-535.34,5.24-16.1,22.54-24.92,38.64-19.68,16.1,5.23,24.92,22.53,19.68,38.64-120.24,369.53,164.02,563.03,190.27,579.96,29.64,9.72,57.94,17.94,84.02,24.83-55.1-79.07-124.09-215.13-86.1-364.85,4.11-16.44,20.77-26.43,37.2-22.32,16.43,4.11,26.43,20.77,22.32,37.2-45.35,178.74,91.07,338.46,122.15,371.96,28.34,5.53,47.71,8.39,54.37,9.32h474.34c6.67-.93,26.03-3.79,54.37-9.32,31.08-33.5,167.5-193.22,122.15-371.96-4.11-16.43,5.89-33.09,22.33-37.2,16.43-4.11,33.09,5.88,37.2,22.32,37.99,149.72-31,285.78-86.1,364.85,26.07-6.89,54.38-15.1,84.01-24.83,26.25-16.94,310.51-210.44,190.28-579.96-5.24-16.11,3.57-33.41,19.68-38.64,16.11-5.24,33.41,3.57,38.64,19.68,81.42,250.23-3.96,428.97-90.63,535.34,131.69-64.37,259.42-160.7,316.57-302.69-52.25-40.23-182.29-159.43-204.3-362.99-1.79-16.83,10.41-31.93,27.24-33.73,16.83-1.79,31.93,10.41,33.72,27.24,17.49,161.75,111.18,262.57,163.06,306.83,20.8-89.59,14.93-195.04-30.51-319.04-5.83-15.91,2.34-33.53,18.24-39.36,15.9-5.83,33.53,2.33,39.37,18.24,253.46,691.54-584.47,859.54-728.84,883.14-.46,13.24,3.44,29.88,9.93,48,179.78-143.64,464.68-97.45,465.56-97.32v.03c5.1.79,10.08,2.88,14.4,6.33,13.19,10.54,15.33,29.78,4.8,42.96-46.45,58.07,5.27-6.47-22.62,28.48-69.12,86.65-101.32,127.01-144.03,154.37-37.61,24.09-78.27,35.01-154.34,55.45-24.49,6.58-52.72,14.17-83.65,22.89-103.82,66.42-133.8,168.73-159.65,256.97-32.54,111.07-59.56,203.3-194.05,208.69Z"/>
</svg>